<?xml version="1.0" encoding="UTF-8" standalone="no"?>
<!-- Created with Inkscape (http://www.inkscape.org/) -->

<svg
   width="210mm"
   height="297mm"
   viewBox="0 0 210 297"
   version="1.1"
   id="svg5"
   inkscape:version="1.1.2 (0a00cf5339, 2022-02-04)"
   sodipodi:docname="stringtune.svg"
   xmlns:inkscape="http://www.inkscape.org/namespaces/inkscape"
   xmlns:sodipodi="http://sodipodi.sourceforge.net/DTD/sodipodi-0.dtd"
   xmlns="http://www.w3.org/2000/svg"
   xmlns:svg="http://www.w3.org/2000/svg">
  <sodipodi:namedview
     id="namedview7"
     pagecolor="#ffffff"
     bordercolor="#666666"
     borderopacity="1.0"
     inkscape:pageshadow="2"
     inkscape:pageopacity="0.0"
     inkscape:pagecheckerboard="0"
     inkscape:document-units="mm"
     showgrid="false"
     inkscape:zoom="0.74920735"
     inkscape:cx="396.41896"
     inkscape:cy="437.79602"
     inkscape:window-width="1920"
     inkscape:window-height="1013"
     inkscape:window-x="0"
     inkscape:window-y="30"
     inkscape:window-maximized="1"
     inkscape:current-layer="layer1" />
  <defs
     id="defs2" />
  <g
     inkscape:label="Layer 1"
     inkscape:groupmode="layer"
     id="layer1">
    <path
       style="fill:#000000;stroke-width:0.264583"
       d="m 39.1232,79.500774 c 0.650202,-0.944849 2.409234,-2.232742 3.581484,-2.622218 1.229663,-0.408551 3.822713,-0.448638 5.006927,-0.0774 1.950439,0.611435 3.379905,1.970255 4.344765,4.130039 0.664259,1.486905 0.799969,2.1721 0.66481,3.356545 -0.0934,0.818541 -0.345629,1.90455 -0.560495,2.413358 -0.291655,0.690645 -0.290044,1.074667 0.0063,1.515223 0.584019,0.868078 3.393829,3.790798 9.329057,9.703937 2.046477,2.03885 4.128726,4.130862 5.94875,5.976602 1.406822,1.42671 6.230198,5.88565 7.096568,6.56038 0.51766,0.40315 1.117709,0.73886 1.333439,0.74601 0.215729,0.007 2.208098,-1.19569 4.427472,-2.673 2.219384,-1.47731 5.131769,-3.25691 6.471968,-3.95467 2.509255,-1.30641 9.864275,-4.30701 10.204797,-4.16321 0.105278,0.0445 0.758466,-0.11338 1.451525,-0.35075 0.693069,-0.237372 2.567357,-0.673862 4.165097,-0.969982 11.65335,-2.15977 24.15156,-0.60369 34.54563,4.301082 6.243,2.94596 10.7779,5.86251 15.36379,9.881 4.40767,3.86232 8.47476,8.59061 10.98979,12.77644 0.64937,1.08075 1.40575,2.28887 1.68085,2.68472 1.23965,1.78373 4.54492,9.91408 5.36668,13.20106 2.30673,9.22663 2.64509,18.01876 0.99532,25.86306 -2.10009,9.98555 -5.54117,17.5628 -11.4914,25.30407 -1.72788,2.24798 -5.61918,6.36587 -7.59395,8.03615 -6.89643,5.83303 -16.59494,10.71702 -24.60773,12.39196 -0.95292,0.1992 -2.37864,0.5117 -3.16825,0.69445 -2.09874,0.48574 -9.8061,1.0554 -12.07427,0.89243 -1.07499,-0.0772 -2.22652,-0.11539 -2.55895,-0.0848 -0.86996,0.0801 -6.47966,-0.74032 -10.340576,-1.51233 -3.004441,-0.60076 -3.863308,-0.89379 -9.288401,-3.16909 -6.40017,-2.6843 -8.014592,-3.59126 -12.642919,-7.10307 -4.736878,-3.59418 -9.579834,-8.80433 -13.265656,-14.27143 -4.16739,-6.18142 -7.237229,-14.00835 -8.80127,-22.43987 -1.725629,-9.30266 -0.936432,-18.96616 2.324645,-28.46481 1.466939,-4.27279 3.646285,-8.86814 6.568773,-13.85085 0.815989,-1.39124 1.521691,-2.77526 1.568209,-3.0756 0.04651,-0.30035 -0.209191,-0.98304 -0.568245,-1.51709 -0.359053,-0.53405 -0.983454,-1.71832 -1.387551,-2.63172 -0.404105,-0.9134 -1.099639,-2.17384 -1.545634,-2.80098 -0.446006,-0.62715 -1.380366,-2.24021 -2.076357,-3.58457 -0.696001,-1.34436 -1.730899,-3.17843 -2.299766,-4.0757 -0.568876,-0.89728 -1.306568,-2.10509 -1.639329,-2.68402 -0.332762,-0.57893 -1.07954,-1.87107 -1.659503,-2.87142 -0.579963,-1.000345 -1.442053,-2.500445 -1.915755,-3.333555 -0.772956,-1.35942 -2.555645,-4.106014 -3.933664,-6.060611 -0.497133,-0.705138 -0.536041,-0.7168 -1.678246,-0.503014 -3.371899,0.631116 -6.479436,-0.609712 -8.221374,-3.282766 -1.832642,-2.812245 -1.874151,-5.747128 -0.117401,-8.29999 z m 2.139794,-0.319292 c 0.207518,0.256714 0.400471,0.411913 0.428777,0.344884 0.02831,-0.06703 -0.118329,-0.331911 -0.325847,-0.588625 -0.207518,-0.256713 -0.400472,-0.411912 -0.428777,-0.344884 -0.02831,0.06703 0.118328,0.331912 0.325847,0.588625 z m -1.105109,4.353276 c -0.0053,1.364572 0.525548,2.767183 1.478847,3.907425 0.983151,1.175947 3.229685,1.948089 4.760013,1.636034 2.381239,-0.485566 4.244,-3.06295 4.04111,-5.591439 -0.128174,-1.597298 -0.60171,-2.547759 -1.791962,-3.596705 -1.494714,-1.31726 -3.335493,-1.603914 -5.14157,-0.800668 -2.356428,1.048004 -3.33831,2.352318 -3.346438,4.445353 z m 14.867031,12.196437 c 0.911548,1.32821 2.86497,4.565265 5.026757,8.329945 0.591653,1.03035 1.872961,3.1928 2.847352,4.80545 0.97439,1.61265 2.127804,3.62515 2.563145,4.47221 0.435333,0.84706 1.23241,2.28656 1.771274,3.19887 1.134907,1.92141 1.70132,3.44769 2.460343,6.62977 0.299695,1.25643 0.628158,2.51344 0.729917,2.79336 0.10176,0.27991 0.254506,0.91184 0.339426,1.40427 0.150784,0.87437 2.096377,3.35735 2.895519,3.6953 0.669776,0.28312 3.374549,2.81074 4.376701,4.08983 1.74087,2.22194 3.276506,4.48446 5.139544,7.57231 1.008772,1.67197 2.251963,3.66874 2.76265,4.43728 3.474939,5.22946 12.987685,23.16078 16.268006,30.66483 3.84251,8.79012 5.46238,13.77899 5.63618,17.35822 0.0816,1.67981 -0.0119,2.15147 -0.78771,3.97547 -0.71717,1.68543 -1.06808,2.223 -1.89254,2.89658 -1.72245,1.40722 -5.168178,2.5527 -8.359922,2.77913 -4.091524,0.29026 -6.662065,-0.13064 -11.182184,-1.83095 l -3.717575,-1.39842 1.335767,0.91756 c 4.072906,2.79775 9.897657,5.40224 14.978558,6.69752 9.150066,2.33265 17.315116,1.75197 26.204886,-1.8636 4.93697,-2.00792 8.40521,-4.10923 12.8518,-7.78655 7.51,-6.21075 12.57521,-13.67764 18.02198,-26.56717 3.07555,-7.27782 5.40265,-13.77992 5.59899,-15.64316 0.0765,-0.72611 0.25751,-1.60386 0.40221,-1.95056 0.26239,-0.62906 0.56572,-2.81096 0.86398,-6.21749 0.22311,-2.54819 -0.14746,-9.02907 -0.66472,-11.62541 -0.43148,-2.16576 -1.37342,-5.48098 -1.95116,-6.86723 -2.41037,-5.78354 -4.35686,-8.80992 -8.4223,-13.0949 -2.12936,-2.24434 -7.87388,-6.17261 -11.78591,-8.05954 -3.12613,-1.50787 -2.95645,-1.28439 0.625,0.82316 5.25639,3.09319 8.63549,5.77047 11.621,9.20738 7.22894,8.32191 10.15472,20.10405 8.10526,32.63985 -0.23955,1.46523 -0.74473,2.97261 -1.96782,5.87173 -2.53708,6.01299 -4.04832,7.90417 -9.35365,11.70284 -1.47438,1.05567 -4.57711,1.93475 -6.5406,1.85312 -2.20183,-0.0915 -5.10827,-1.16001 -7.85262,-2.88677 -2.50797,-1.57803 -8.53964,-6.00059 -11.18448,-8.20073 -0.9352,-0.77795 -3.18828,-2.63481 -5.00686,-4.12634 -3.40643,-2.79384 -9.66514,-8.17272 -11.4847,-9.87023 -0.56659,-0.52858 -1.61091,-1.42219 -2.3207,-1.98578 -0.70978,-0.56359 -2.66745,-2.35488 -4.350368,-3.98064 -1.682912,-1.62577 -3.711149,-3.55598 -4.507197,-4.28937 -0.796048,-0.73339 -2.068182,-2.00566 -2.826976,-2.82727 -0.758785,-0.8216 -1.702519,-1.80037 -2.097174,-2.17503 -2.040325,-1.93696 -2.863505,-2.84372 -3.580663,-3.94422 -0.433584,-0.66535 -0.909657,-1.26096 -1.057937,-1.32358 -0.148281,-0.0626 -0.505588,-0.70237 -0.79403,-1.42167 -0.288434,-0.7193 -0.961331,-2.18603 -1.495323,-3.25941 -0.534002,-1.07338 -0.908376,-2.09967 -0.831948,-2.28065 0.09959,-0.23583 -0.235842,-0.48734 -1.183977,-0.88773 -4.030309,-1.70197 -9.952318,-6.21124 -13.202753,-10.05314 -0.494699,-0.58471 -1.505753,-1.63888 -2.246784,-2.34259 -0.74103,-0.70371 -2.397838,-2.38518 -3.681795,-3.73658 -1.283946,-1.35141 -2.603832,-2.737395 -2.933058,-3.079955 -0.329227,-0.34257 -1.404501,-1.49698 -2.389503,-2.56537 -2.527283,-2.741219 -3.424309,-3.08252 -1.771308,-0.67395 z m 39.214433,52.771145 c 1.731515,-1.51924 4.291096,-2.73288 5.401068,-2.56096 0.603703,0.0935 1.745883,1.26676 6.291693,6.46277 3.05477,3.49169 7.21051,8.2368 9.23499,10.5447 13.96624,15.92147 16.21333,18.53993 17.06222,19.88217 1.43128,2.26306 -0.26863,5.82637 -3.67979,7.71352 -1.20884,0.66877 -4.80382,1.43348 -5.91204,1.25759 -0.59906,-0.0951 -2.01636,-1.73629 -4.4397,-5.14114 -1.89819,-2.66697 -3.40181,-4.75501 -3.8497,-5.34598 -6.48975,-8.5628 -14.20037,-19.10854 -16.774556,-22.94239 -0.969739,-1.44427 -2.305827,-3.33023 -2.969094,-4.19102 -1.389794,-1.80369 -2.024395,-3.03622 -1.954172,-3.7954 0.03015,-0.32587 0.647385,-1.0576 1.589081,-1.88386 z m -13.060865,52.56223 c 0.227316,0.004 0.193937,-0.0778 -0.08507,-0.20944 -0.252466,-0.1191 -0.420779,-0.12222 -0.373969,-0.007 0.04678,0.11517 0.253366,0.21261 0.459033,0.21653 z"
       id="path836"
       sodipodi:nodetypes="ssssssssssssssssssssssscssssscsssssssssssssssssssssssssssssssssssssscssssscssscsssscscsssssssscsssssssssssssssssssssssssssssssssssssscss"
       inkscape:export-filename="/home/andrii/Projects/stringtune/favicon.png"
       inkscape:export-xdpi="96"
       inkscape:export-ydpi="96" />
    <path
       style="fill:none;stroke-width:1.33474"
       d="m 162.03509,332.65833 c -8.16052,-5.45158 -11.49557,-16.70238 -7.33564,-24.7468 1.02919,-1.99025 4.26431,-4.96359 7.18914,-6.60744 20.32229,-11.42177 38.41247,14.88723 20.8434,30.31307 -5.89721,5.17781 -13.90194,5.5805 -20.6969,1.04117 z"
       id="path1742"
       transform="scale(0.26458333)"
       inkscape:export-filename="/home/andrii/Projects/stringtune/favicon.png"
       inkscape:export-xdpi="96"
       inkscape:export-ydpi="96" />
    <path
       style="fill:none;stroke-width:1.33474"
       d="m 162.03509,332.65833 c -8.16052,-5.45158 -11.49557,-16.70238 -7.33564,-24.7468 1.02919,-1.99025 4.26431,-4.96359 7.18914,-6.60744 20.32229,-11.42177 38.41247,14.88723 20.8434,30.31307 -5.89721,5.17781 -13.90194,5.5805 -20.6969,1.04117 z"
       id="path1781"
       transform="scale(0.26458333)"
       inkscape:export-filename="/home/andrii/Projects/stringtune/favicon.png"
       inkscape:export-xdpi="96"
       inkscape:export-ydpi="96" />
    <path
       style="fill:#f48fb1;stroke-width:1.33417325;stroke-miterlimit:4;stroke-dasharray:none;fill-opacity:1"
       d="m 162.03509,332.65833 c -8.16052,-5.45158 -11.49557,-16.70238 -7.33564,-24.7468 1.02919,-1.99025 4.26431,-4.96359 7.18914,-6.60744 20.32229,-11.42177 38.41247,14.88723 20.8434,30.31307 -5.89721,5.17781 -13.90194,5.5805 -20.6969,1.04117 z"
       id="path1820"
       transform="scale(0.26458333)"
       inkscape:export-filename="/home/andrii/Projects/stringtune/favicon.png"
       inkscape:export-xdpi="96"
       inkscape:export-ydpi="96" />
    <path
       style="fill:none;fill-opacity:1;stroke-width:1.78078;stroke-miterlimit:4;stroke-dasharray:none"
       d="m 384.40627,792.88755 c -12.71754,-2.3297 -26.63311,-6.60859 -39.74864,-12.22227 -11.0063,-4.71089 -25.50319,-12.45508 -24.73195,-13.21172 0.22708,-0.22278 4.91764,1.12555 10.42345,2.99629 22.87828,7.77345 55.6673,4.53416 67.89828,-6.70781 5.67704,-5.21798 9.48935,-15.30475 9.50383,-25.14562 0.0268,-18.24795 -12.09857,-50.56853 -38.7385,-103.25829 -21.34569,-42.21856 -30.94878,-59.46986 -51.16727,-91.91845 -16.28122,-26.12969 -26.24859,-38.9557 -36.00192,-46.32728 -9.61381,-7.26613 -12.43398,-12.26783 -17.65294,-31.30834 -5.23157,-19.0865 -9.14768,-26.85339 -38.267,-75.89564 -8.67094,-14.60343 -15.54357,-26.77347 -15.27252,-27.04451 0.27105,-0.27105 13.83123,13.29949 30.13373,30.15675 30.53092,31.56986 42.14606,41.55065 58.99246,50.69172 l 9.75417,5.29274 5.71103,12.70881 c 7.64272,17.00743 13.36245,24.15922 40.6776,50.86215 44.74255,43.73973 110.49145,99.25165 145.14306,122.54455 30.38163,20.42261 51.51644,18.63819 76.62402,-6.4694 12.19883,-12.19882 23.83649,-37.4086 27.0958,-58.69555 4.62912,-30.23331 0.24794,-62.18519 -12.11177,-88.33097 -7.34745,-15.54284 -12.15484,-22.49038 -24.51244,-35.42494 -12.59134,-13.17921 -10.64233,-13.67468 2.3203,-0.58985 22.22424,22.43374 35.96505,50.83591 40.28133,83.26128 2.19637,16.49974 0.86042,47.15824 -2.74955,63.09976 -4.6839,20.68386 -21.15444,62.65068 -36.16715,92.15363 -12.56405,24.69083 -22.68392,38.85622 -40.55872,56.77243 -28.33446,28.40014 -58.74165,45.09912 -94.62139,51.96404 -12.61378,2.41342 -39.20743,2.43707 -52.2573,0.0465 z m 97.24237,-70.15152 c 6.14256,-1.80223 15.78815,-10.32867 18.75342,-16.57748 3.21457,-6.77422 2.63815,-11.57321 -2.20887,-18.38963 -5.19693,-7.30851 -107.92241,-124.93987 -115.60251,-132.37692 -5.33749,-5.16855 -5.40571,-5.19058 -11.12063,-3.58902 -6.5251,1.82859 -17.31981,9.19077 -20.42538,13.93046 -2.87546,4.38852 -1.62846,7.10501 12.20524,26.58818 26.00041,36.61855 74.27986,102.54782 90.02913,122.94161 l 8.12292,10.51841 7.55082,-0.76803 c 4.15295,-0.4224 9.86608,-1.44731 12.69586,-2.27758 z"
       id="path2087"
       transform="scale(0.26458333)"
       inkscape:export-filename="/home/andrii/Projects/stringtune/favicon.png"
       inkscape:export-xdpi="96"
       inkscape:export-ydpi="96" />
    <path
       style="fill:#007bff;fill-opacity:1;stroke-width:1.78078;stroke-miterlimit:4;stroke-dasharray:none"
       d="M 391.3945,808.89358 C 368.73947,804.84451 364.13066,803.48927 343.48849,794.8067 321.9231,785.73578 315.42178,782.40598 304.989,775.08827 264.16495,746.45371 234.34349,706.77486 219.57807,661.44502 198.67715,597.2792 205.6952,539.56054 242.32284,474.38479 c 4.36791,-7.77232 7.94166,-15.43952 7.94166,-17.0382 0,-1.59869 -1.8976,-6.35126 -4.21688,-10.56126 -17.39228,-31.57083 -45.72667,-80.1215 -54.32085,-93.07818 l -6.19736,-9.3432 -11.47698,-0.69 c -9.55352,-0.57435 -12.39324,-1.29634 -16.9442,-4.30803 -7.89054,-5.22171 -12.91139,-14.43446 -12.91139,-23.6911 0,-9.44726 3.32044,-15.29152 12.02001,-21.15629 6.24517,-4.21015 7.16861,-4.43668 16.23109,-3.98172 10.96602,0.55053 14.65757,2.59622 21.08994,11.68711 3.4253,4.84098 3.99728,6.84905 3.95618,13.88903 -0.0264,4.52641 -0.54199,10.13189 -1.14568,12.45662 -1.06964,4.11904 -0.45595,4.89467 24.07345,30.42591 26.72931,27.82102 59.33206,58.91751 64.04659,61.08763 2.38422,1.09746 5.701,-0.50384 20.76476,-10.02502 9.86002,-6.23211 20.92009,-12.84767 24.57795,-14.70125 55.44405,-28.09562 118.9039,-31.28231 176.05684,-8.84084 72.63826,28.52189 126.20467,90.49881 140.64792,162.73115 8.23995,41.20888 6.1173,74.40092 -7.3533,114.98447 -10.6752,32.16168 -27.65662,59.21352 -53.11693,84.61661 -18.37273,18.33147 -33.10514,28.76803 -57.48704,40.72433 -31.96907,15.67685 -55.66852,21.27513 -93.43208,22.07048 -22.54511,0.47482 -27.39945,0.16962 -43.73204,-2.74946 z m 48.50587,-15.40912 c 23.71896,-4.83362 47.54595,-15.15215 67.2774,-29.13518 16.8059,-11.90981 38.72012,-34.52866 49.98863,-51.596 19.85993,-30.07992 45.7047,-90.31622 53.00421,-123.53674 1.99643,-9.08589 2.45288,-16.57987 2.35317,-38.63465 -0.11439,-25.29014 -0.39572,-28.37304 -3.71586,-40.70969 -6.93261,-25.75956 -22.50868,-52.269 -40.55946,-69.02952 -11.80993,-10.96574 -48.50738,-33.38162 -50.83655,-31.05244 -0.86133,0.86133 -1.26665,0.57208 13.14882,9.38347 6.97404,4.26285 16.28388,10.49663 20.68853,13.85286 37.11467,28.28038 56.49195,72.44933 53.56812,122.10426 -1.07786,18.30509 -3.22902,27.61838 -9.96818,43.15628 -7.17234,16.53666 -13.79074,26.04677 -24.15623,34.71055 -12.96202,10.83405 -21.14948,14.33367 -33.55915,14.34441 -9.22813,0.008 -11.09328,-0.48337 -21.3559,-5.62617 -26.97873,-13.51954 -103.87168,-76.71832 -157.90754,-129.78515 -28.83259,-28.31554 -34.41438,-35.31272 -41.6547,-52.21727 -5.16413,-12.05706 -5.27252,-12.1896 -13.17696,-16.1114 -16.25404,-8.06447 -28.70718,-18.71173 -62.8008,-53.69386 -18.51471,-18.9972 -34.26305,-34.31339 -34.99633,-34.03597 -0.73328,0.27741 7.23422,14.81544 17.70554,32.30673 32.88816,54.93632 35.41387,60.26778 43.41473,91.64294 1.27324,4.99302 3.80232,8.2084 15.2229,19.35379 16.69153,16.28936 17.87672,17.84794 37.06067,48.73669 37.29121,60.04393 76.82506,140.43747 85.23956,173.33782 5.55089,21.70381 1.59377,36.99849 -11.47616,44.35652 -10.5897,5.96172 -21.77731,8.24626 -37.28634,7.61398 -11.47144,-0.46766 -15.75183,-1.35735 -29.37619,-6.10589 -8.7715,-3.05715 -16.19488,-5.31176 -16.4964,-5.01023 -0.30153,0.30153 2.6707,2.60493 6.60496,5.11865 18.90173,12.07699 46.39324,23.02523 67.28986,26.79758 16.12313,2.91061 40.99446,2.67556 56.75565,-0.53637 z M 181.94967,334.31278 c 9.23813,-5.6323 12.08525,-21.42027 5.39631,-29.92388 -7.9167,-10.06446 -23.54978,-9.81185 -32.24431,0.52102 -6.76179,8.03592 -3.90685,22.52881 5.7343,29.10976 5.70698,3.89552 14.99354,4.02443 21.1137,0.2931 z M 158.16716,299.7288 c 0,-1.57482 -2.60322,-3.25944 -3.55932,-2.30335 -0.95609,0.95609 0.72854,3.55932 2.30335,3.55932 0.69078,0 1.25597,-0.56519 1.25597,-1.25597 z"
       id="path2200"
       transform="scale(0.26458333)"
       inkscape:export-filename="/home/andrii/Projects/stringtune/favicon.png"
       inkscape:export-xdpi="96"
       inkscape:export-ydpi="96" />
    <path
       style="fill:#007bff;fill-opacity:1;stroke-width:1.78078;stroke-miterlimit:4;stroke-dasharray:none"
       d="m 456.96771,717.24718 c -3.2967,-3.93986 -10.73522,-13.77037 -16.53004,-21.84557 -5.79482,-8.0752 -18.40787,-25.19329 -28.02899,-38.0402 -19.71248,-26.32172 -55.19025,-76.03948 -59.62952,-83.56347 l -2.92529,-4.958 6.88582,-6.33154 c 3.78721,-3.48234 9.6391,-7.38301 13.0042,-8.66816 l 6.11838,-2.33663 5.44544,5.2118 c 5.67534,5.43186 101.32569,114.24118 112.26042,127.70452 7.26634,8.94665 8.4532,12.44618 6.36595,18.77057 -3.38691,10.26244 -15.70018,18.71993 -29.63955,20.35823 l -7.33282,0.86183 z"
       id="path2239"
       transform="scale(0.26458333)"
       inkscape:export-filename="/home/andrii/Projects/stringtune/favicon.png"
       inkscape:export-xdpi="96"
       inkscape:export-ydpi="96" />
    <path
       style="fill:#000000;fill-opacity:1;stroke-width:1.78078;stroke-miterlimit:4;stroke-dasharray:none"
       d=""
       id="path2391"
       transform="scale(0.26458333)"
       inkscape:export-filename="/home/andrii/Projects/stringtune/favicon.png"
       inkscape:export-xdpi="96"
       inkscape:export-ydpi="96" />
  </g>
</svg>
