<?xml version="1.0" standalone="no"?>
<!DOCTYPE svg PUBLIC "-//W3C//DTD SVG 20010904//EN"
 "http://www.w3.org/TR/2001/REC-SVG-20010904/DTD/svg10.dtd">
<svg version="1.0" xmlns="http://www.w3.org/2000/svg"
 width="400.000000pt" height="400.000000pt" viewBox="0 0 400.000000 400.000000"
 preserveAspectRatio="xMidYMid meet">
<metadata>
Created by potrace 1.11, written by Peter Selinger 2001-2013
</metadata>
<g transform="translate(0.000000,400.000000) scale(0.100000,-0.100000)"
fill="#000000" stroke="none">
<path d="M1795 3588 c-27 -4 -72 -12 -100 -18 -27 -5 -61 -11 -75 -14 -53 -9
-219 -70 -315 -115 -87 -42 -273 -158 -309 -194 -7 -6 -39 -34 -71 -62 -118
-101 -259 -284 -341 -441 -20 -38 -39 -73 -43 -79 -18 -24 -96 -268 -107 -335
-3 -14 -7 -31 -9 -38 -20 -55 -27 -377 -12 -502 41 -335 207 -670 457 -920
212 -211 473 -358 755 -424 39 -10 79 -19 90 -22 79 -19 379 -26 481 -11 294
41 559 151 779 323 335 261 549 627 611 1049 16 114 11 379 -11 497 -30 168
-86 326 -166 470 -122 219 -249 370 -433 512 -296 228 -613 335 -986 333 -80
0 -167 -4 -195 -9z m145 -522 l0 -415 -297 2 -298 2 3 25 c5 49 65 217 117
327 86 182 207 334 324 407 27 17 126 61 149 65 1 1 2 -185 2 -413z m217 394
c177 -62 329 -238 448 -516 37 -87 95 -261 95 -285 0 -4 -144 -7 -320 -7 -241
-1 -320 2 -321 11 -1 15 0 811 0 815 2 8 49 -1 98 -18z m-581 -77 c-138 -140
-288 -436 -345 -680 l-13 -51 -274 0 c-151 0 -274 2 -274 4 0 8 60 113 96 170
123 193 344 388 564 499 58 30 280 115 299 115 2 0 -22 -26 -53 -57z m1054
-40 c225 -103 429 -275 578 -484 51 -72 122 -191 122 -204 0 -8 -500 -3 -505
5 -3 5 -17 48 -30 97 -36 124 -70 213 -127 327 -56 114 -88 163 -170 264 l-60
72 59 -21 c32 -12 92 -37 133 -56z m-1444 -837 c1 -16 -2 -46 -7 -65 -4 -20
-10 -65 -14 -101 -3 -36 -8 -85 -11 -110 -3 -25 -6 -121 -6 -215 0 -144 3
-214 17 -360 2 -20 15 -104 21 -137 3 -17 -17 -18 -291 -18 l-294 0 -25 83
c-67 223 -79 455 -36 692 12 63 56 219 71 246 7 14 42 16 291 15 l283 -1 1
-29z m754 -487 l0 -519 -317 2 -317 3 -7 40 c-26 157 -33 252 -33 450 0 200 6
297 29 436 8 52 15 97 15 100 0 3 142 6 315 6 l315 0 0 -518z m794 492 c9 -44
25 -152 33 -226 15 -136 8 -564 -11 -660 -2 -11 -7 -44 -11 -72 l-7 -53 -339
0 -339 0 -1 23 c-1 29 -1 954 0 988 l1 26 335 0 334 0 5 -26z m662 -10 c18
-41 59 -196 68 -256 35 -234 20 -460 -44 -673 l-22 -72 -275 0 c-151 0 -272 4
-269 8 2 4 8 35 11 67 4 33 9 62 10 65 16 27 24 424 12 595 -8 105 -10 127
-27 228 -5 34 -10 65 -10 68 0 3 119 6 265 6 l266 0 15 -36z m-2188 -1126 c5
-6 20 -55 34 -110 64 -248 188 -490 326 -637 l63 -66 -43 13 c-346 106 -621
305 -817 593 -57 84 -122 210 -110 214 26 9 539 2 547 -7z m732 -417 c0 -494
12 -453 -111 -391 -86 43 -202 152 -268 253 -53 82 -131 242 -165 340 -18 54
-66 216 -66 225 0 0 137 0 305 0 l305 0 0 -427z m770 424 c0 -2 -7 -32 -16
-66 -66 -261 -203 -518 -345 -650 -76 -70 -185 -131 -251 -141 l-38 -5 -1 38
c-1 47 -1 803 0 817 1 9 651 16 651 7z m632 -13 c-8 -34 -121 -216 -183 -291
-68 -85 -169 -185 -249 -250 -103 -83 -336 -207 -444 -236 l-37 -11 53 58
c133 144 244 362 319 627 l34 119 255 0 c217 -1 255 -3 252 -16z"/>
</g>
</svg>
